<svg width="235" height="29" viewBox="0 0 235 29" fill="none" xmlns="http://www.w3.org/2000/svg">
<path d="M22.1763 14.8938C21.9384 15.5278 21.349 15.9375 20.6741 15.9375H20.125V23.8437C20.125 24.2405 19.803 24.5625 19.4062 24.5625H15.0937V19.5312C15.0937 17.5496 13.4816 15.9375 11.5 15.9375C9.5184 15.9375 7.90624 17.5496 7.90624 19.5312V24.5625H3.59374C3.19699 24.5625 2.87499 24.2405 2.87499 23.8437V15.9375H2.32515C1.65024 15.9375 1.06087 15.5285 0.822961 14.8945C0.585055 14.2606 0.759711 13.5634 1.26859 13.1192L9.66287 5.16986C10.6936 4.19452 12.3071 4.19452 13.3371 5.16986L21.7515 13.1379C22.2388 13.5627 22.4142 14.2599 22.1763 14.8938Z" fill="white"/>
<g clip-path="url(#clip0_48_157)">
<path d="M90 6V8C90 11.866 86.866 15 83 15H82V16H87V23C87 24.105 86.105 25 85 25H77C75.895 25 75 24.105 75 23V16H80V13C80 9.134 83.134 6 87 6H90ZM74.5 5C77.029 5 79.265 6.251 80.624 8.169C79.604 9.51 79 11.185 79 13V14H78.5C74.358 14 71 10.642 71 6.5V5H74.5Z" fill="white"/>
</g>
<path d="M165.368 8.97913C165.257 8.81851 165.109 8.68722 164.936 8.59652C164.763 8.50582 164.57 8.4584 164.375 8.45834H147.861L146.466 5.11126C146.283 4.67048 145.974 4.29392 145.577 4.02933C145.18 3.76473 144.713 3.62401 144.236 3.62501H141.417V6.04167H144.236L149.968 19.7985C150.06 20.0187 150.215 20.2067 150.413 20.3389C150.612 20.4711 150.845 20.5417 151.083 20.5417H160.75C161.254 20.5417 161.705 20.2287 161.882 19.7587L165.507 10.092C165.576 9.90909 165.599 9.71229 165.575 9.51847C165.55 9.32465 165.48 9.13958 165.368 8.97913V8.97913Z" fill="white"/>
<path d="M151.688 25.375C152.689 25.375 153.5 24.5635 153.5 23.5625C153.5 22.5615 152.689 21.75 151.688 21.75C150.686 21.75 149.875 22.5615 149.875 23.5625C149.875 24.5635 150.686 25.375 151.688 25.375Z" fill="white"/>
<path d="M160.146 25.375C161.147 25.375 161.958 24.5635 161.958 23.5625C161.958 22.5615 161.147 21.75 160.146 21.75C159.145 21.75 158.333 22.5615 158.333 23.5625C158.333 24.5635 159.145 25.375 160.146 25.375Z" fill="white"/>
<path d="M224.5 14.5C223.056 14.5 221.82 13.9859 220.792 12.9578C219.764 11.9297 219.25 10.6938 219.25 9.25C219.25 7.80625 219.764 6.57031 220.792 5.54219C221.82 4.51406 223.056 4 224.5 4C225.944 4 227.18 4.51406 228.208 5.54219C229.236 6.57031 229.75 7.80625 229.75 9.25C229.75 10.6938 229.236 11.9297 228.208 12.9578C227.18 13.9859 225.944 14.5 224.5 14.5ZM214 25V21.325C214 20.5813 214.192 19.8974 214.575 19.2736C214.957 18.6506 215.466 18.175 216.1 17.8469C217.456 17.1688 218.834 16.6599 220.234 16.3204C221.634 15.9818 223.056 15.8125 224.5 15.8125C225.944 15.8125 227.366 15.9818 228.766 16.3204C230.166 16.6599 231.544 17.1688 232.9 17.8469C233.534 18.175 234.043 18.6506 234.425 19.2736C234.808 19.8974 235 20.5813 235 21.325V25H214Z" fill="white"/>
<defs>
<clipPath id="clip0_48_157">
<rect width="24" height="24" fill="white" transform="translate(69 3)"/>
</clipPath>
</defs>
</svg>
