<svg width="21" height="21" viewBox="0 0 21 21" fill="none" xmlns="http://www.w3.org/2000/svg">
<path d="M20.625 15.4725V19.4505C20.6251 19.7353 20.5172 20.0096 20.323 20.218C20.1289 20.4263 19.8629 20.5533 19.5787 20.5733C19.0871 20.607 18.6855 20.625 18.375 20.625C8.43338 20.625 0.375 12.5666 0.375 2.625C0.375 2.3145 0.391875 1.91288 0.42675 1.42125C0.446688 1.13712 0.573654 0.871137 0.782029 0.67696C0.990404 0.482783 1.26468 0.374871 1.5495 0.375H5.5275C5.66704 0.374859 5.80166 0.426591 5.90519 0.520148C6.00873 0.613705 6.0738 0.742406 6.08775 0.88125C6.11363 1.14 6.13725 1.34588 6.15975 1.50225C6.38333 3.06254 6.8415 4.58006 7.51875 6.00338C7.62563 6.22838 7.55588 6.49725 7.35338 6.64125L4.92563 8.376C6.41001 11.8348 9.16637 14.5911 12.6251 16.0755L14.3576 13.6523C14.4284 13.5532 14.5318 13.4822 14.6496 13.4516C14.7674 13.421 14.8922 13.4327 15.0023 13.4846C16.4254 14.1606 17.9425 14.6176 19.5023 14.8402C19.6586 14.8627 19.8645 14.8875 20.121 14.9122C20.2596 14.9265 20.3881 14.9916 20.4814 15.0952C20.5747 15.1987 20.6263 15.3331 20.6261 15.4725H20.625Z" fill="#00BD3A"/>
</svg>
