<svg width="18" height="16" viewBox="0 0 18 16" fill="none" xmlns="http://www.w3.org/2000/svg">
<path d="M5.08476 1.19665C4.78651 0.538911 4.47263 0.525639 4.18901 0.514104C3.95676 0.504182 3.69126 0.504926 3.42601 0.504926C3.16051 0.504926 2.72913 0.604027 2.36451 0.999066C1.99951 1.39448 0.971008 2.35001 0.971008 4.29345C0.971008 6.23702 2.39763 8.11522 2.59651 8.37903C2.79563 8.64235 5.35063 12.7582 9.39713 14.3416C12.7601 15.6574 13.4445 15.3957 14.1744 15.3297C14.9044 15.264 16.5299 14.3744 16.8615 13.452C17.1934 12.5297 17.1934 11.7392 17.0939 11.5739C16.9944 11.4094 16.7289 11.3105 16.3308 11.113C15.9325 10.9155 13.9753 9.95981 13.6104 9.82796C13.2454 9.69624 12.98 9.63051 12.7145 10.026C12.449 10.421 11.6866 11.3105 11.4543 11.5739C11.2221 11.838 10.9898 11.8709 10.5918 11.6733C10.1934 11.4751 8.91126 11.0585 7.39013 9.71286C6.20663 8.66579 5.40763 7.37277 5.17538 6.97724C4.94313 6.58232 5.15051 6.36824 5.35013 6.17141C5.52901 5.99441 5.74838 5.71014 5.94763 5.47956C6.14613 5.24886 6.21238 5.08427 6.34513 4.82083C6.47801 4.55714 6.41151 4.32645 6.31213 4.12886C6.21238 3.93128 5.43876 1.97779 5.08476 1.19677" fill="white"/>
</svg>
